<?xml version="1.0" encoding="UTF-8"?>
<svg width="64px" height="54px" viewBox="0 0 64 54" version="1.1" xmlns="http://www.w3.org/2000/svg" xmlns:xlink="http://www.w3.org/1999/xlink">
    <!-- Generator: Sketch 57.1 (83088) - https://sketch.com -->
    <title>noun_dashboard_2952409</title>
    <desc>Created with Sketch.</desc>
    <g id="Page-1" stroke="none" stroke-width="1" fill="none" fill-rule="evenodd">
        <g id="noun_dashboard_2952409" fill="#EFF2F7" fill-rule="nonzero">
            <g id="Group">
                <path d="M63,54 L1,54 C0.44771525,54 0,53.5522847 0,53 L0,1 C0,0.44771525 0.44771525,0 1,0 L63,0 C63.5522847,0 64,0.44771525 64,1 L64,53 C64,53.5522847 63.5522847,54 63,54 Z M2,52 L62,52 L62,2 L2,2 L2,52 Z" id="Shape"></path>
                <rect id="Rectangle" x="1" y="6" width="62" height="2"></rect>
                <rect id="Rectangle" x="8" y="1" width="2" height="6"></rect>
                <rect id="Rectangle" x="54" y="1" width="2" height="6"></rect>
                <path d="M30,26 L6,26 C5.44771525,26 5,25.5522847 5,25 L5,11 C5,10.4477153 5.44771525,10 6,10 L30,10 C30.5522847,10 31,10.4477153 31,11 L31,25 C31,25.5522847 30.5522847,26 30,26 Z M7,24 L29,24 L29,12 L7,12 L7,24 Z" id="Shape"></path>
                <path d="M48,50 C41.9248678,50 37,45.0751322 37,39 C37,32.9248678 41.9248678,28 48,28 C54.0751322,28 59,32.9248678 59,39 C58.9928365,45.0721626 54.0721626,49.9928365 48,50 L48,50 Z M48,30 C43.0294373,30 39,34.0294373 39,39 C39,43.9705627 43.0294373,48 48,48 C52.9705627,48 57,43.9705627 57,39 C56.9944889,34.0317218 52.9682782,30.0055111 48,30 Z" id="Shape"></path>
                <path d="M54.293,46.707 L47.293,39.707 C47.1054506,39.5195073 47,39.2651948 47,39 L47,29 L49,29 L49,38.586 L55.707,45.293 L54.293,46.707 Z" id="Path"></path>
                <rect id="Rectangle" x="48" y="38" width="10" height="2"></rect>
                <path d="M18.293,22.707 L12,16.414 L6.707,21.707 L5.293,20.293 L11.293,14.293 C11.6834999,13.9026181 12.3165001,13.9026181 12.707,14.293 L19.707,21.293 L18.293,22.707 Z" id="Path"></path>
                <path d="M29.293,23.707 L22,16.414 L17.707,20.707 L16.293,19.293 L21.293,14.293 C21.6834999,13.9026181 22.3165001,13.9026181 22.707,14.293 L30.707,22.293 L29.293,23.707 Z" id="Path"></path>
                <rect id="Rectangle" x="43" y="11" width="16" height="2"></rect>
                <rect id="Rectangle" x="37" y="15" width="22" height="2"></rect>
                <rect id="Rectangle" x="37" y="19" width="22" height="2"></rect>
                <rect id="Rectangle" x="37" y="23" width="15" height="2"></rect>
                <rect id="Rectangle" x="54" y="23" width="2" height="2"></rect>
                <rect id="Rectangle" x="5" y="32" width="4" height="2"></rect>
                <rect id="Rectangle" x="13" y="32" width="18" height="2"></rect>
                <path d="M11,36 C9.34314575,36 8,34.6568542 8,33 C8,31.3431458 9.34314575,30 11,30 C12.6568542,30 14,31.3431458 14,33 C14,34.6568542 12.6568542,36 11,36 Z M11,32 C10.4477153,32 10,32.4477153 10,33 C10,33.5522847 10.4477153,34 11,34 C11.5522847,34 12,33.5522847 12,33 C12,32.4477153 11.5522847,32 11,32 Z" id="Shape"></path>
                <rect id="Rectangle" x="5" y="38" width="11" height="2"></rect>
                <rect id="Rectangle" x="20" y="38" width="11" height="2"></rect>
                <path d="M18,42 C16.3431458,42 15,40.6568542 15,39 C15,37.3431458 16.3431458,36 18,36 C19.6568542,36 21,37.3431458 21,39 C21,40.6568542 19.6568542,42 18,42 Z M18,38 C17.4477153,38 17,38.4477153 17,39 C17,39.5522847 17.4477153,40 18,40 C18.5522847,40 19,39.5522847 19,39 C19,38.4477153 18.5522847,38 18,38 Z" id="Shape"></path>
                <rect id="Rectangle" x="5" y="44" width="18" height="2"></rect>
                <rect id="Rectangle" x="27" y="44" width="4" height="2"></rect>
                <path d="M25,48 C23.3431458,48 22,46.6568542 22,45 C22,43.3431458 23.3431458,42 25,42 C26.6568542,42 28,43.3431458 28,45 C28,46.6568542 26.6568542,48 25,48 L25,48 Z M25,44 C24.4477153,44 24,44.4477153 24,45 C24,45.5522847 24.4477153,46 25,46 C25.5522847,46 26,45.5522847 26,45 C26,44.4477153 25.5522847,44 25,44 Z" id="Shape"></path>
            </g>
        </g>
    </g>
</svg>