<?xml version="1.0" encoding="UTF-8"?>
<svg width="56px" height="64px" viewBox="0 0 56 64" version="1.1" xmlns="http://www.w3.org/2000/svg" xmlns:xlink="http://www.w3.org/1999/xlink">
    <!-- Generator: Sketch 57.1 (83088) - https://sketch.com -->
    <title>noun_Notebook_2952497</title>
    <desc>Created with Sketch.</desc>
    <g id="Page-1" stroke="none" stroke-width="1" fill="none" fill-rule="evenodd">
        <g id="noun_Notebook_2952497" fill="#EFF2F7" fill-rule="nonzero">
            <g id="Group">
                <path d="M9,10 C7.34314575,10 6,8.65685425 6,7 L6,3 C6,1.34314575 7.34314575,-6.66133815e-16 9,-6.66133815e-16 C10.6568542,-6.66133815e-16 12,1.34314575 12,3 L12,7 C12,8.65685425 10.6568542,10 9,10 Z M9,2 C8.44771525,2 8,2.44771525 8,3 L8,7 C8,7.55228475 8.44771525,8 9,8 C9.55228475,8 10,7.55228475 10,7 L10,3 C10,2.44771525 9.55228475,2 9,2 Z" id="Shape"></path>
                <path d="M19,10 C17.3431458,10 16,8.65685425 16,7 L16,3 C16,1.34314575 17.3431458,0 19,0 C20.6568542,0 22,1.34314575 22,3 L22,7 C22,8.65685425 20.6568542,10 19,10 Z M19,2 C18.4477153,2 18,2.44771525 18,3 L18,7 C18,7.55228475 18.4477153,8 19,8 C19.5522847,8 20,7.55228475 20,7 L20,3 C20,2.44771525 19.5522847,2 19,2 Z" id="Shape"></path>
                <path d="M29,10 C27.3431458,10 26,8.65685425 26,7 L26,3 C26,1.34314575 27.3431458,0 29,0 C30.6568542,0 32,1.34314575 32,3 L32,7 C32,8.65685425 30.6568542,10 29,10 Z M29,2 C28.4477153,2 28,2.44771525 28,3 L28,7 C28,7.55228475 28.4477153,8 29,8 C29.5522847,8 30,7.55228475 30,7 L30,3 C30,2.44771525 29.5522847,2 29,2 Z" id="Shape"></path>
                <path d="M39,10.0000001 C37.3431458,10.0000001 36,8.65685425 36,7.00000013 L36,3.00000013 C36,1.3431458 37.3431458,1.26440545e-07 39,1.26440545e-07 C40.6568542,1.26440545e-07 42,1.3431458 42,3.00000013 L42,7.00000013 C42,8.65685425 40.6568542,10.0000001 39,10.0000001 Z M39,2 C38.4477153,2 38,2.44771525 38,3 L38,7 C38,7.55228475 38.4477153,8 39,8 C39.5522847,8 40,7.55228475 40,7 L40,3 C40,2.44771525 39.5522847,2 39,2 Z" id="Shape"></path>
                <rect id="Rectangle" x="11" y="4" width="6" height="2"></rect>
                <rect id="Rectangle" x="21" y="4" width="6" height="2"></rect>
                <rect id="Rectangle" x="31" y="4" width="6" height="2"></rect>
                <path d="M47,64 L1,64 C0.44771525,64 0,63.5522847 0,63 L0,5 C0,4.44771525 0.44771525,4 1,4 L7,4 L7,6 L2,6 L2,62 L46,62 L46,38 L48,38 L48,63 C48,63.5522847 47.5522847,64 47,64 Z" id="Path"></path>
                <path d="M48,30 L46,30 L46,6 L41,6 L41,4 L47,4 C47.5522847,4 48,4.44771525 48,5 L48,30 Z" id="Path"></path>
                <path d="M30.451,55.6130036 C30.1856514,55.6137185 29.9310531,55.5082061 29.744,55.32 L25.68,51.256 C25.2896181,50.8655001 25.2896181,50.2324999 25.68,49.842 L49.387,26.135 C50.9195041,24.670864 53.3324959,24.670864 54.865,26.135 L54.865,26.135 C55.5918033,26.8612287 56.0001655,27.8465511 56.0001655,28.874 C56.0001655,29.9014489 55.5918033,30.8867713 54.865,31.613 L31.158,55.32 C30.9705073,55.5075494 30.7161948,55.6130036 30.451,55.6130036 L30.451,55.6130036 Z M27.8,50.549 L30.45,53.199 L53.45,30.199 C53.8016161,29.8476966 53.9991783,29.3710392 53.9991783,28.874 C53.9991783,28.3769608 53.8016161,27.9003034 53.45,27.549 L53.45,27.549 C52.7086629,26.8406779 51.5413371,26.8406779 50.8,27.549 L27.8,50.549 Z" id="Shape"></path>
                <rect id="Rectangle" transform="translate(50.094504, 30.906181) rotate(-45.000000) translate(-50.094504, -30.906181) " x="49.0945035" y="28.0321808" width="2" height="5.748"></rect>
                <rect id="Rectangle" transform="translate(47.384504, 33.615285) rotate(-45.000000) translate(-47.384504, -33.615285) " x="46.3845035" y="30.7412854" width="2" height="5.748"></rect>
                <path d="M23,59 C22.6600122,58.9999059 22.3433631,58.8270768 22.159369,58.5411784 C21.9753749,58.2552799 21.949245,57.8954831 22.09,57.586 L25.477,50.136 L27.297,50.963 L25.014,55.986 L30.037,53.7 L30.864,55.52 L23.414,58.907 C23.284333,58.9675267 23.143096,58.9992539 23,59 L23,59 Z" id="Path"></path>
                <rect id="Rectangle" transform="translate(37.901504, 43.098273) rotate(-45.000000) translate(-37.901504, -43.098273) " x="24.4905035" y="42.0982726" width="26.822" height="2"></rect>
                <rect id="Rectangle" x="8" y="57" width="12" height="2"></rect>
                <rect id="Rectangle" x="4" y="57" width="2" height="2"></rect>
                <path d="M42,31 L6,31 C5.44771525,31 5,30.5522847 5,30 L5,14 C5,13.4477153 5.44771525,13 6,13 L42,13 C42.5522847,13 43,13.4477153 43,14 L43,30 C43,30.5522847 42.5522847,31 42,31 Z M7,29 L41,29 L41,15 L7,15 L7,29 Z" id="Shape"></path>
                <path d="M20.293,26.707 L13,19.414 L6.707,25.707 L5.293,24.293 L12.293,17.293 C12.6834999,16.9026181 13.3165001,16.9026181 13.707,17.293 L21.707,25.293 L20.293,26.707 Z" id="Path"></path>
                <path d="M32.293,26.707 L25,19.414 L19.707,24.707 L18.293,23.293 L24.293,17.293 C24.6834999,16.9026181 25.3165001,16.9026181 25.707,17.293 L33.707,25.293 L32.293,26.707 Z" id="Path"></path>
                <path d="M31.707,24.707 L30.293,23.293 L36.293,17.293 C36.6834999,16.9026181 37.3165001,16.9026181 37.707,17.293 L42.707,22.293 L41.293,23.707 L37,19.414 L31.707,24.707 Z" id="Path"></path>
                <rect id="Rectangle" x="9" y="34" width="27" height="2"></rect>
                <rect id="Rectangle" x="5" y="38" width="29" height="2"></rect>
                <rect id="Rectangle" x="17" y="42" width="13" height="2"></rect>
                <rect id="Rectangle" x="5" y="46" width="21" height="2"></rect>
                <rect id="Rectangle" x="5" y="34" width="2" height="2"></rect>
                <rect id="Rectangle" x="5" y="42" width="2" height="2"></rect>
                <rect id="Rectangle" x="9" y="42" width="2" height="2"></rect>
                <rect id="Rectangle" x="13" y="42" width="2" height="2"></rect>
            </g>
        </g>
    </g>
</svg>