<svg width="106" height="111" fill="none" xmlns="http://www.w3.org/2000/svg"><path fill-rule="evenodd" clip-rule="evenodd" d="M15.173 45.314c0-16.27 12.528-29.412 28.157-29.412 15.63 0 28.157 13.267 28.157 29.537S58.84 74.85 43.33 74.85 15.173 61.584 15.173 45.314zm63.353 27.909c-.148-.156-.296-.31-.591-.466 5.471-7.601 8.725-17.064 8.725-27.303C86.66 20.322 67.14 0 43.33 0S0 20.322 0 45.454c0 25.131 19.373 45.454 43.33 45.454 9.76 0 18.781-3.413 26.027-9.153.148.155.296.465.444.62l25.288 26.528c1.331 1.241 2.81 1.862 4.437 1.862 1.626 0 3.105-.621 4.288-1.862 2.366-2.482 2.366-6.671 0-9.153L78.526 73.223z" fill="#0C3944"/></svg>