<svg xmlns="http://www.w3.org/2000/svg" viewBox="0 0 1143.53 648.99"><defs><style>.cls-1,.cls-52{fill:#fcf6a0;}.cls-2,.cls-44{fill:#c1e94e;}.cls-3,.cls-55{fill:#474136;}.cls-4,.cls-46{fill:#f3976b;}.cls-5{fill:#196c84;}.cls-54,.cls-6{fill:#e36164;}.cls-12,.cls-7{fill:#0c3944;}.cls-30,.cls-8{fill:#24673a;}.cls-9{fill:#9b084f;}.cls-10{fill:#70af90;}.cls-11,.cls-39{fill:#fff30d;}.cls-12,.cls-30,.cls-39,.cls-44,.cls-46,.cls-52,.cls-54,.cls-55{font-size:14.28px;font-family:Raleway-Bold, Raleway;font-weight:700;}.cls-13{letter-spacing:-0.01em;}.cls-14{letter-spacing:-0.02em;}.cls-15{letter-spacing:-0.01em;}.cls-16{letter-spacing:-0.02em;}.cls-17{letter-spacing:-0.03em;}.cls-18{letter-spacing:-0.02em;}.cls-19{letter-spacing:-0.07em;}.cls-20{letter-spacing:0em;}.cls-21{letter-spacing:-0.02em;}.cls-22{letter-spacing:0em;}.cls-23{letter-spacing:0em;}.cls-24{letter-spacing:-0.01em;}.cls-25{letter-spacing:-0.03em;}.cls-26{letter-spacing:-0.09em;}.cls-27{letter-spacing:-0.02em;}.cls-28{letter-spacing:-0.03em;}.cls-29{letter-spacing:0em;}.cls-31{letter-spacing:-0.01em;}.cls-32{letter-spacing:-0.04em;}.cls-33{letter-spacing:-0.02em;}.cls-34{letter-spacing:-0.03em;}.cls-35{letter-spacing:-0.02em;}.cls-36{letter-spacing:0em;}.cls-37{letter-spacing:-0.01em;}.cls-38{letter-spacing:-0.01em;}.cls-40{letter-spacing:-0.07em;}.cls-41{letter-spacing:-0.02em;}.cls-42{letter-spacing:-0.01em;}.cls-43{letter-spacing:-0.06em;}.cls-45{letter-spacing:-0.02em;}.cls-47{letter-spacing:-0.02em;}.cls-48{letter-spacing:0em;}.cls-49{letter-spacing:-0.01em;}.cls-50{letter-spacing:-0.01em;}.cls-51{fill:#c62e43;}.cls-53{letter-spacing:-0.03em;}.cls-56{letter-spacing:-0.02em;}.cls-57{letter-spacing:-0.03em;}.cls-58{letter-spacing:-0.11em;}.cls-59{letter-spacing:-0.02em;}</style></defs><g id="Capa_2" data-name="Capa 2"><g id="Capa_1-2" data-name="Capa 1"><rect class="cls-1" width="283.06" height="214.34"/><rect class="cls-2" y="217.32" width="283.06" height="214.34"/><rect class="cls-3" y="434.65" width="283.06" height="214.34"/><rect class="cls-4" x="286.83" width="283.06" height="214.34"/><rect class="cls-5" x="286.83" y="217.32" width="283.06" height="214.34"/><rect class="cls-6" x="573.65" width="283.06" height="214.34"/><rect class="cls-7" x="573.65" y="217.32" width="283.06" height="214.34"/><rect class="cls-8" x="573.65" y="434.65" width="283.06" height="214.34"/><rect class="cls-9" x="860.48" width="283.06" height="214.34"/><rect class="cls-10" x="860.48" y="217.32" width="283.06" height="214.34"/><rect class="cls-11" x="860.48" y="434.65" width="283.06" height="214.34"/><text class="cls-12" transform="translate(10.9 36.08) scale(0.99 1)">Saha<tspan class="cls-13" x="33.78" y="0">r</tspan><tspan x="39.21" y="0">a Sand</tspan><tspan x="0" y="34.28">#</tspan><tspan class="cls-14" x="10.3" y="34.28">F</tspan><tspan x="18.27" y="34.28">CF</tspan><tspan class="cls-15" x="36.26" y="34.28">6</tspan><tspan class="cls-16" x="44.72" y="34.28">A</tspan><tspan x="54.06" y="34.28">0</tspan><tspan class="cls-17" x="0" y="51.42">r</tspan><tspan x="5.16" y="51.42">gb(252, 246, 16</tspan><tspan class="cls-16" x="105.81" y="51.42">0</tspan><tspan x="114.32" y="51.42">)</tspan><tspan x="0" y="68.56">cmjn(5, 0, </tspan><tspan class="cls-18" x="68.3" y="68.56">4</tspan><tspan class="cls-19" x="76.21" y="68.56">7</tspan><tspan class="cls-20" x="83.21" y="68.56">, </tspan><tspan class="cls-21" x="89.95" y="68.56">0</tspan><tspan class="cls-20" x="98.46" y="68.56">) </tspan><tspan class="cls-22" x="0" y="85.7">P</tspan><tspan x="8.83" y="85.7">a</tspan><tspan class="cls-23" x="17.03" y="85.7">n</tspan><tspan class="cls-24" x="25.58" y="85.7">t</tspan><tspan x="30.88" y="85.7">one</tspan><tspan class="cls-25" x="56.72" y="85.7"> </tspan><tspan class="cls-26" x="59.66" y="85.7">Y</tspan><tspan x="67.76" y="85.7">ell</tspan><tspan class="cls-27" x="85.37" y="85.7">o</tspan><tspan class="cls-28" x="93.75" y="85.7">w</tspan><tspan class="cls-29" x="105.35" y="85.7" xml:space="preserve"> 0131 C</tspan></text><text class="cls-30" transform="translate(301.26 36.08) scale(0.99 1)">Flame <tspan class="cls-31" x="46.2" y="0">P</tspan><tspan x="54.97" y="0">ea</tspan><tspan x="0" y="34.28">#</tspan><tspan class="cls-32" x="10.3" y="34.28">F</tspan><tspan class="cls-29" x="17.94" y="34.28">3</tspan><tspan class="cls-33" x="25.91" y="34.28">9</tspan><tspan x="33.99" y="34.28">76B</tspan><tspan class="cls-34" x="0" y="51.42">r</tspan><tspan x="5.16" y="51.42">gb(243, 151, 1</tspan><tspan class="cls-35" x="94.44" y="51.42">0</tspan><tspan x="102.85" y="51.42">7)</tspan><tspan x="0" y="68.56">cmjn</tspan><tspan class="cls-16" x="33.71" y="68.56">(</tspan><tspan x="37.88" y="68.56">0, 50, 59, </tspan><tspan class="cls-21" x="99.88" y="68.56">0</tspan><tspan class="cls-20" x="108.39" y="68.56">) </tspan><tspan class="cls-36" x="0" y="85.7">P</tspan><tspan x="8.83" y="85.7">a</tspan><tspan class="cls-36" x="17.03" y="85.7">n</tspan><tspan class="cls-37" x="25.58" y="85.7">t</tspan><tspan x="30.88" y="85.7">one 163 C</tspan></text><text class="cls-30" transform="translate(10.9 248.54) scale(0.99 1)"><tspan class="cls-14">A</tspan><tspan x="9.37" y="0">tla</tspan><tspan class="cls-22" x="27.58" y="0">n</tspan><tspan x="36.14" y="0">tis</tspan><tspan x="0" y="34.28">#C1E94E</tspan><tspan class="cls-17" x="0" y="51.42">r</tspan><tspan x="5.16" y="51.42">gb(193, 233, 78)</tspan><tspan x="0" y="68.56">cmjn(33, 0, </tspan><tspan class="cls-38" x="76.33" y="68.56">7</tspan><tspan class="cls-29" x="84.2" y="68.56">9, </tspan><tspan class="cls-21" x="99.35" y="68.56">0</tspan><tspan class="cls-20" x="107.86" y="68.56">) </tspan><tspan class="cls-22" x="0" y="85.7">P</tspan><tspan x="8.83" y="85.7">a</tspan><tspan class="cls-23" x="17.03" y="85.7">n</tspan><tspan class="cls-24" x="25.58" y="85.7">t</tspan><tspan x="30.88" y="85.7">one 584 C</tspan></text><text class="cls-39" transform="translate(591.63 36.08) scale(0.99 1)"><tspan class="cls-15">R<tspan class="cls-29" x="9.28" y="0">oman</tspan></tspan><tspan x="0" y="34.28">#E36164</tspan><tspan class="cls-34" x="0" y="51.42">r</tspan><tspan x="5.16" y="51.42">gb(22</tspan><tspan class="cls-40" x="43.81" y="51.42">7</tspan><tspan x="50.8" y="51.42">, </tspan><tspan class="cls-41" x="57.54" y="51.42">9</tspan><tspan class="cls-19" x="65.63" y="51.42">7</tspan><tspan x="72.63" y="51.42">, 10</tspan><tspan class="cls-16" x="95.19" y="51.42">0</tspan><tspan class="cls-29" x="103.71" y="51.42">)</tspan><tspan x="0" y="68.56">cmjn</tspan><tspan class="cls-42" x="33.71" y="68.56">(</tspan><tspan x="37.99" y="68.56">6, 73, 52, </tspan><tspan class="cls-21" x="98.84" y="68.56">0</tspan><tspan class="cls-20" x="107.35" y="68.56">) </tspan><tspan class="cls-36" x="0" y="85.7">P</tspan><tspan x="8.83" y="85.7">a</tspan><tspan class="cls-36" x="17.03" y="85.7">n</tspan><tspan class="cls-37" x="25.58" y="85.7">t</tspan><tspan x="30.88" y="85.7">one </tspan><tspan class="cls-43" x="60.14" y="85.7">7</tspan><tspan x="67.27" y="85.7">416 C</tspan></text><text class="cls-44" transform="translate(874.91 36.08) scale(0.99 1)">Cerise Dark<tspan x="0" y="34.28">#9B084</tspan><tspan class="cls-45" x="53.97" y="34.28">F</tspan><tspan class="cls-34" x="0" y="51.42">r</tspan><tspan x="5.16" y="51.42">gb(155, 8, </tspan><tspan class="cls-38" x="72.68" y="51.42">7</tspan><tspan x="80.55" y="51.42">9)</tspan><tspan x="0" y="68.56">cmjn(2</tspan><tspan class="cls-40" x="46.19" y="68.56">7</tspan><tspan class="cls-29" x="53.19" y="68.56">, 100, 34, 24) </tspan><tspan class="cls-36" x="0" y="85.7">P</tspan><tspan x="8.83" y="85.7">a</tspan><tspan class="cls-36" x="17.03" y="85.7">n</tspan><tspan class="cls-37" x="25.58" y="85.7">t</tspan><tspan x="30.88" y="85.7">one 676 C</tspan></text><text class="cls-46" transform="translate(14.53 463.25) scale(0.99 1)"><tspan class="cls-47">Z<tspan class="cls-48" x="8.7" y="0">eus</tspan></tspan><tspan class="cls-14" x="0" y="34.28">#</tspan><tspan class="cls-18" x="10.07" y="34.28">4</tspan><tspan class="cls-43" x="17.98" y="34.28">7</tspan><tspan x="25.11" y="34.28">4136</tspan><tspan class="cls-17" x="0" y="51.42">r</tspan><tspan x="5.16" y="51.42">gb(71, 65, 54)</tspan><tspan x="0" y="68.56">cmjn(59, 53, 63, 59) </tspan><tspan class="cls-22" x="0" y="85.7">P</tspan><tspan x="8.83" y="85.7">a</tspan><tspan class="cls-23" x="17.03" y="85.7">n</tspan><tspan class="cls-24" x="25.58" y="85.7">t</tspan><tspan x="30.88" y="85.7">one 7771 C</tspan></text><text class="cls-39" transform="translate(299.58 249.01) scale(0.99 1)">Ca<tspan class="cls-49" x="18" y="0">l</tspan><tspan class="cls-29" x="22.37" y="0">ypso</tspan><tspan x="0" y="34.28">#196C84</tspan><tspan class="cls-34" x="0" y="51.42">r</tspan><tspan x="5.16" y="51.42">gb(25, 108, 132)</tspan><tspan x="0" y="68.56">cmjn(85, 40, 33, 18) </tspan><tspan class="cls-36" x="0" y="85.7">P</tspan><tspan x="8.83" y="85.7">a</tspan><tspan class="cls-36" x="17.03" y="85.7">n</tspan><tspan class="cls-37" x="25.58" y="85.7">t</tspan><tspan x="30.88" y="85.7">one 7</tspan><tspan class="cls-50" x="68.16" y="85.7">7</tspan><tspan x="75.97" y="85.7">00 C</tspan></text><rect class="cls-51" x="286.83" y="434.65" width="283.06" height="214.34"/><text class="cls-44" transform="translate(299.58 465.03) scale(0.99 1)">Brick <tspan class="cls-15" x="38.33" y="0">R</tspan><tspan x="47.62" y="0">ed</tspan><tspan x="0" y="34.28">#C62E43</tspan><tspan class="cls-34" x="0" y="51.42">r</tspan><tspan x="5.16" y="51.42">gb(198, 46, 67)</tspan><tspan x="0" y="68.56">cmjn(16, 92, 65, 5) </tspan><tspan class="cls-36" x="0" y="85.7">P</tspan><tspan x="8.83" y="85.7">a</tspan><tspan class="cls-36" x="17.03" y="85.7">n</tspan><tspan class="cls-37" x="25.58" y="85.7">t</tspan><tspan x="30.88" y="85.7">one </tspan><tspan class="cls-21" x="60.14" y="85.7">1</tspan><tspan class="cls-42" x="66.94" y="85.7">7</tspan><tspan class="cls-41" x="74.81" y="85.7">9</tspan><tspan class="cls-20" x="82.9" y="85.7">7 C</tspan></text><text class="cls-52" transform="translate(586.41 463.25) scale(0.99 1)"><tspan class="cls-36">P</tspan><tspan x="8.83" y="0">arsl</tspan><tspan class="cls-50" x="34.18" y="0">e</tspan><tspan class="cls-28" x="42.53" y="0">y</tspan><tspan x="0" y="34.28">#24673</tspan><tspan class="cls-53" x="51.16" y="34.28">A</tspan><tspan class="cls-34" x="0" y="51.42">r</tspan><tspan x="5.16" y="51.42">gb(36, 103, 58)</tspan><tspan x="0" y="68.56">cmjn(85, 34, 88, 27) </tspan><tspan class="cls-36" x="0" y="85.7">P</tspan><tspan x="8.83" y="85.7">a</tspan><tspan class="cls-36" x="17.03" y="85.7">n</tspan><tspan class="cls-37" x="25.58" y="85.7">t</tspan><tspan x="30.88" y="85.7">one 7734 C</tspan></text><text class="cls-54" transform="translate(586.41 241.87) scale(0.99 1)">Blue Dianne<tspan x="0" y="34.28">#0C3944</tspan><tspan class="cls-34" x="0" y="51.42">r</tspan><tspan x="5.16" y="51.42">gb(12, </tspan><tspan class="cls-49" x="49.55" y="51.42">5</tspan><tspan class="cls-40" x="57.3" y="51.42">7</tspan><tspan x="64.3" y="51.42">, 68)</tspan><tspan x="0" y="68.56">cmjn(94, 59, 50, 53) </tspan><tspan class="cls-36" x="0" y="85.7">P</tspan><tspan x="8.83" y="85.7">a</tspan><tspan class="cls-36" x="17.03" y="85.7">n</tspan><tspan class="cls-37" x="25.58" y="85.7">t</tspan><tspan x="30.88" y="85.7">one 309 C</tspan></text><text class="cls-55" transform="translate(873.32 464.08) scale(0.99 1)">B<tspan class="cls-34" x="9.71" y="0">r</tspan><tspan x="14.87" y="0">oom</tspan><tspan x="0" y="34.28">#FF</tspan><tspan class="cls-32" x="26.69" y="34.28">F</tspan><tspan x="34.34" y="34.28">30D</tspan><tspan class="cls-34" x="0" y="51.42">r</tspan><tspan x="5.16" y="51.42">gb(255, 243, 13)</tspan><tspan x="0" y="68.56">cmjn(</tspan><tspan class="cls-40" x="38.13" y="68.56">7</tspan><tspan x="45.13" y="68.56">, 0, 8</tspan><tspan class="cls-19" x="76.01" y="68.56">7</tspan><tspan x="83.01" y="68.56">, </tspan><tspan class="cls-16" x="89.75" y="68.56">0</tspan><tspan x="98.26" y="68.56">) </tspan><tspan class="cls-36" x="0" y="85.7">P</tspan><tspan x="8.83" y="85.7">a</tspan><tspan class="cls-36" x="17.03" y="85.7">n</tspan><tspan class="cls-37" x="25.58" y="85.7">t</tspan><tspan x="30.88" y="85.7">one 803 C</tspan></text><text class="cls-12" transform="translate(873.32 248.05) scale(0.99 1)">Si<tspan class="cls-49" x="12.4" y="0">l</tspan><tspan class="cls-16" x="16.77" y="0">v</tspan><tspan x="24.35" y="0">e</tspan><tspan class="cls-56" x="32.91" y="0">r</tspan><tspan class="cls-57" x="38.09" y="0"> </tspan><tspan class="cls-58" x="41.12" y="0">T</tspan><tspan class="cls-34" x="48.39" y="0">r</tspan><tspan x="53.55" y="0">ee</tspan><tspan x="0" y="34.28">#</tspan><tspan class="cls-50" x="10.3" y="34.28">7</tspan><tspan class="cls-27" x="18.11" y="34.28">0</tspan><tspan x="26.61" y="34.28">A</tspan><tspan class="cls-42" x="36.21" y="34.28">F</tspan><tspan x="44.26" y="34.28">90</tspan><tspan class="cls-34" x="0" y="51.42">r</tspan><tspan x="5.16" y="51.42">gb(112, </tspan><tspan class="cls-21" x="56.6" y="51.42">1</tspan><tspan class="cls-59" x="63.4" y="51.42">7</tspan><tspan class="cls-29" x="71.14" y="51.42">5, 144)</tspan><tspan x="0" y="68.56">cmjn</tspan><tspan class="cls-42" x="33.71" y="68.56">(</tspan><tspan x="37.99" y="68.56">60, 12, 51, </tspan><tspan class="cls-21" x="105.73" y="68.56">0</tspan><tspan class="cls-20" x="114.25" y="68.56">) </tspan><tspan class="cls-36" x="0" y="85.7">P</tspan><tspan x="8.83" y="85.7">a</tspan><tspan class="cls-36" x="17.03" y="85.7">n</tspan><tspan class="cls-37" x="25.58" y="85.7">t</tspan><tspan x="30.88" y="85.7">one 556 C</tspan></text></g></g></svg>