<?xml version="1.0" encoding="UTF-8"?>
<svg width="50px" height="64px" viewBox="0 0 50 64" version="1.1" xmlns="http://www.w3.org/2000/svg" xmlns:xlink="http://www.w3.org/1999/xlink">
    <!-- Generator: Sketch 57.1 (83088) - https://sketch.com -->
    <title>noun_clipboard_2960606</title>
    <desc>Created with Sketch.</desc>
    <g id="Page-1" stroke="none" stroke-width="1" fill="none" fill-rule="evenodd">
        <g id="noun_clipboard_2960606" fill="#EFF2F7" fill-rule="nonzero">
            <g id="Group">
                <path d="M49,64 L1,64 C0.44771525,64 0,63.5522847 0,63 L0,5 C0,4.44771525 0.44771525,4 1,4 L17,4 L17,6 L2,6 L2,62 L48,62 L48,6 L33,6 L33,4 L49,4 C49.5522847,4 50,4.44771525 50,5 L50,63 C50,63.5522847 49.5522847,64 49,64 Z" id="Path"></path>
                <path d="M33,12 L17,12 C16.4477153,12 16,11.5522847 16,11 L16,5 C16,4.44771525 16.4477153,4 17,4 L21,4 C21,1.790861 22.790861,0 25,0 C27.209139,0 29,1.790861 29,4 L33,4 C33.5522847,4 34,4.44771525 34,5 L34,11 C34,11.5522847 33.5522847,12 33,12 Z M18,10 L32,10 L32,6 L28,6 C27.4477153,6 27,5.55228475 27,5 L27,4 C27,2.8954305 26.1045695,2 25,2 C23.8954305,2 23,2.8954305 23,4 L23,5 C23,5.55228475 22.5522847,6 22,6 L18,6 L18,10 Z" id="Shape"></path>
                <path d="M45,60 L13,60 C12.7348052,60 12.4804927,59.8945494 12.293,59.707 L4.293,51.707 C4.10545063,51.5195073 4,51.2651948 4,51 L4,9 C4,8.44771525 4.44771525,8 5,8 L17,8 L17,10 L6,10 L6,50.586 L13.414,58 L44,58 L44,10 L33,10 L33,8 L45,8 C45.5522847,8 46,8.44771525 46,9 L46,59 C46,59.5522847 45.5522847,60 45,60 Z" id="Path"></path>
                <path d="M13,60 C12.7348052,60 12.4804927,59.8945494 12.293,59.707 L4.293,51.707 C4.00709208,51.4210057 3.92157809,50.9909634 4.07632202,50.6173454 C4.23106595,50.2437275 4.5956041,50 5,50 L13,50 C13.5522847,50 14,50.4477153 14,51 L14,59 C14,59.5522847 13.5522847,60 13,60 Z M7.414,52 L12,56.586 L12,52 L7.414,52 Z" id="Shape"></path>
                <path d="M21,28 L17,28 C16.4477153,28 16,27.5522847 16,27 L16,17 C16,16.4477153 16.4477153,16 17,16 L21,16 C21.5522847,16 22,16.4477153 22,17 L22,27 C22,27.5522847 21.5522847,28 21,28 Z M18,26 L20,26 L20,18 L18,18 L18,26 Z" id="Shape"></path>
                <path d="M33,28 L29,28 C28.4477153,28 28,27.5522847 28,27 L28,17 C28,16.4477153 28.4477153,16 29,16 L33,16 C33.5522847,16 34,16.4477153 34,17 L34,27 C34,27.5522847 33.5522847,28 33,28 Z M30,26 L32,26 L32,18 L30,18 L30,26 Z" id="Shape"></path>
                <path d="M36,25 L33,25 L33,23 L35,23 L35,21 L33,21 L33,19 L36,19 C36.5522847,19 37,19.4477153 37,20 L37,24 C37,24.5522847 36.5522847,25 36,25 Z" id="Path"></path>
                <path d="M17,25 L14,25 C13.4477153,25 13,24.5522847 13,24 L13,20 C13,19.4477153 13.4477153,19 14,19 L17,19 L17,21 L15,21 L15,23 L17,23 L17,25 Z" id="Path"></path>
                <rect id="Rectangle" x="21" y="19" width="8" height="2"></rect>
                <rect id="Rectangle" x="21" y="23" width="8" height="2"></rect>
                <path d="M15,37 L9,37 C8.44771525,37 8,36.5522847 8,36 L8,30 C8,29.4477153 8.44771525,29 9,29 L15,29 C15.5522847,29 16,29.4477153 16,30 L16,36 C16,36.5522847 15.5522847,37 15,37 Z M10,35 L14,35 L14,31 L10,31 L10,35 Z" id="Shape"></path>
                <rect id="Rectangle" x="18" y="30" width="2" height="2"></rect>
                <rect id="Rectangle" x="22" y="30" width="20" height="2"></rect>
                <rect id="Rectangle" x="18" y="34" width="21" height="2"></rect>
                <path d="M15,47 L9,47 C8.44771525,47 8,46.5522847 8,46 L8,40 C8,39.4477153 8.44771525,39 9,39 L15,39 C15.5522847,39 16,39.4477153 16,40 L16,46 C16,46.5522847 15.5522847,47 15,47 Z M10,45 L14,45 L14,41 L10,41 L10,45 Z" id="Shape"></path>
                <rect id="Rectangle" x="18" y="40" width="2" height="2"></rect>
                <rect id="Rectangle" x="22" y="40" width="20" height="2"></rect>
                <rect id="Rectangle" x="18" y="44" width="21" height="2"></rect>
                <rect id="Rectangle" x="40" y="54" width="2" height="2"></rect>
                <rect id="Rectangle" x="32" y="54" width="6" height="2"></rect>
            </g>
        </g>
    </g>
</svg>